<?xml version="1.0" encoding="UTF-8" standalone="no"?>
<svg
   width="16"
   height="16"
   version="1.1"
   id="svg4"
   sodipodi:docname="icon-star.svg"
   inkscape:version="1.2.2 (b0a8486541, 2022-12-01)"
   xmlns:inkscape="http://www.inkscape.org/namespaces/inkscape"
   xmlns:sodipodi="http://sodipodi.sourceforge.net/DTD/sodipodi-0.dtd"
   xmlns="http://www.w3.org/2000/svg"
   xmlns:svg="http://www.w3.org/2000/svg">
  <defs
     id="defs8" />
  <sodipodi:namedview
     id="namedview6"
     pagecolor="#505050"
     bordercolor="#eeeeee"
     borderopacity="1"
     inkscape:showpageshadow="0"
     inkscape:pageopacity="0"
     inkscape:pagecheckerboard="0"
     inkscape:deskcolor="#505050"
     showgrid="false"
     inkscape:zoom="32.8125"
     inkscape:cx="8.8685714"
     inkscape:cy="8.6857143"
     inkscape:window-width="1366"
     inkscape:window-height="705"
     inkscape:window-x="-8"
     inkscape:window-y="-8"
     inkscape:window-maximized="1"
     inkscape:current-layer="svg4" />
  <path
     d="m 8.663139,0.43 1.901356,4.031 c 0.107011,0.228 0.3153,0.386 0.554164,0.422 l 4.251776,0.647 a 0.73761144,0.772 0 0 1 0.407979,1.316 l -3.076566,3.138 a 0.73856689,0.773 0 0 0 -0.212111,0.683 l 0.726146,4.431 a 0.73761144,0.772 0 0 1 -1.07011,0.813 L 8.3430615,13.819 a 0.73856689,0.773 0 0 0 -0.6860169,0 L 3.8543328,15.911 A 0.73761144,0.772 0 0 1 2.7851784,15.098 l 0.726146,-4.431 A 0.73570053,0.77 0 0 0 3.2992133,9.984 L 0.22264749,6.846 A 0.73761144,0.772 0 0 1 0.63158233,5.53 L 4.8824026,4.883 A 0.73761144,0.772 0 0 0 5.4365667,4.461 L 7.3379226,0.43 a 0.73952235,0.774 0 0 1 1.3252164,0 z"
     fill="#fc7614"
     id="path2"
     style="stroke-width:0.977474" />
</svg>
